<svg width="64" height="21" viewBox="0 0 64 21" fill="none" xmlns="http://www.w3.org/2000/svg">
<path d="M8.06939 7.61634V9.75271H13.225C13.0882 10.9345 12.6775 11.8436 12.0388 12.4345C11.3088 13.1618 10.1225 13.98 8.06939 13.98C4.92124 13.98 2.45748 11.4345 2.45748 8.29816C2.45748 5.1618 4.87562 2.61634 8.06939 2.61634C9.75752 2.61634 11.035 3.29816 11.9475 4.1618L13.4532 2.6618C12.1757 1.43453 10.4419 0.47998 8.06939 0.47998C3.73498 0.47998 0.0849609 3.97998 0.0849609 8.29816C0.0849609 12.6163 3.73498 16.1163 8.06939 16.1163C10.3963 16.1163 12.1757 15.3436 13.5444 13.9345C14.9588 12.5254 15.4151 10.5254 15.4151 8.93453C15.4151 8.43453 15.3694 7.97998 15.3238 7.61634H8.06939Z" fill="#4285F4"/>
<path d="M21.8024 5.84363C19.0193 5.84363 16.6924 7.97999 16.6924 10.8891C16.6924 13.7982 18.9736 15.9345 21.8024 15.9345C24.6312 15.9345 26.9124 13.8436 26.9124 10.9345C26.9124 7.97999 24.6312 5.84363 21.8024 5.84363ZM21.8024 13.98C20.2512 13.98 18.928 12.7073 18.928 10.9345C18.928 9.11635 20.2512 7.88908 21.8024 7.88908C23.3537 7.88908 24.6768 9.11635 24.6768 10.9345C24.6768 12.7073 23.3537 13.98 21.8024 13.98Z" fill="#EA4335"/>
<path d="M46.7596 6.97999H46.6684C46.1665 6.38908 45.2084 5.84363 43.9765 5.84363C41.4215 5.84363 39.2314 8.02545 39.2314 10.8891C39.2314 13.7073 41.4215 15.9345 43.9765 15.9345C45.2084 15.9345 46.1665 15.3891 46.6684 14.7982H46.7596V15.5254C46.7596 17.4345 45.7102 18.48 44.0677 18.48C42.699 18.48 41.8777 17.5254 41.5127 16.6618L39.5964 17.48C40.1439 18.7982 41.6496 20.48 44.1134 20.48C46.714 20.48 48.9496 18.9345 48.9496 15.2073V6.11635H46.8509V6.97999H46.7596ZM44.2046 13.98C42.6533 13.98 41.5127 12.6618 41.5127 10.9345C41.5127 9.16181 42.699 7.88908 44.2046 7.88908C45.7102 7.88908 46.8965 9.20726 46.8965 10.98C46.9421 12.7073 45.7559 13.98 44.2046 13.98Z" fill="#4285F4"/>
<path d="M33.1633 5.84363C30.3801 5.84363 28.0532 7.97999 28.0532 10.8891C28.0532 13.7982 30.3345 15.9345 33.1633 15.9345C35.992 15.9345 38.2733 13.8436 38.2733 10.9345C38.2733 7.97999 35.992 5.84363 33.1633 5.84363ZM33.1633 13.98C31.612 13.98 30.2889 12.7073 30.2889 10.9345C30.2889 9.11635 31.612 7.88908 33.1633 7.88908C34.7145 7.88908 36.0377 9.11635 36.0377 10.9345C36.0377 12.7073 34.7145 13.98 33.1633 13.98Z" fill="#FBBC05"/>
<path d="M50.6377 0.707214H52.8277V15.9799H50.6377V0.707214Z" fill="#34A853"/>
<path d="M59.5803 13.98C58.4397 13.98 57.664 13.48 57.1165 12.4345L63.9147 9.66181L63.6866 9.0709C63.276 7.93454 61.9528 5.84363 59.3522 5.84363C56.7515 5.84363 54.5615 7.88908 54.5615 10.8891C54.5615 13.7073 56.7059 15.9345 59.5803 15.9345C61.9072 15.9345 63.2303 14.5254 63.8235 13.7073L62.0897 12.5709C61.4966 13.4345 60.7209 13.98 59.5803 13.98ZM59.4434 7.75272C60.3559 7.75272 61.1316 8.20726 61.3597 8.84363L56.7972 10.7527C56.7515 8.66181 58.3028 7.75272 59.4434 7.75272Z" fill="#EA4335"/>
</svg>
