<svg width="32" height="33" viewBox="0 0 32 33" fill="none" xmlns="http://www.w3.org/2000/svg">
<path fill-rule="evenodd" clip-rule="evenodd" d="M12.974 25.8087L14.6484 31.2178L15.4896 28.0067L15.0781 27.5087C14.8932 27.211 14.8516 26.9506 14.9531 26.7245C15.1771 26.238 15.638 26.3295 16.0703 26.3295C16.5234 26.3295 17.0833 26.2351 17.224 26.859C17.2734 27.0679 17.2135 27.2855 17.0807 27.5087L16.6667 28.0067L17.5078 31.2178L19.0234 25.8087C20.1172 26.8905 23.3516 27.1051 24.5573 27.8435C24.9375 28.0782 25.2813 28.373 25.5599 28.7737C26.3099 29.8641 26.3646 29.9357 26.5573 31.2894C26.4948 32.002 26.1276 32.4142 25.401 32.4771H6.59896C5.8724 32.417 5.50521 32.0049 5.44271 31.2894C5.63542 29.9357 5.69271 29.8641 6.4401 28.7737C6.71615 28.3702 7.0599 28.0754 7.44271 27.8435C8.64583 27.1051 11.8828 26.8876 12.974 25.8087ZM7.28646 25.4509C7.26563 25.4051 7.24219 25.3651 7.21615 25.325C7.09896 25.1132 6.98177 24.9043 6.86198 24.6639C6.74479 24.4034 6.6276 24.1602 6.52083 23.9341C6.41667 23.6908 6.3151 23.4303 6.22656 23.1728C6.15365 22.9467 6.0651 22.6891 5.97656 22.38C5.84635 21.9421 5.47396 21.6702 5.07813 21.6702H2.53125C2.44271 21.6702 2.35677 21.6559 2.29427 21.6216C2.23698 21.5872 2.16406 21.5414 2.11979 21.4785C2.0625 21.4126 2.01563 21.3497 1.98958 21.2867C1.95833 21.2237 1.94531 21.1236 1.94531 21.0291V17.4946C1.94531 17.3973 1.95833 17.3171 1.97656 17.2513C2.00781 17.1855 2.04948 17.1082 2.125 17.0252C2.18229 16.9622 2.24219 16.9107 2.29948 16.8964C2.35938 16.8621 2.44792 16.8477 2.53385 16.8477H4.875C5.34635 16.8477 5.72917 16.4728 5.81771 15.9891C5.875 15.7144 5.9349 15.4568 5.99219 15.2279C6.0651 14.9674 6.14063 14.7241 6.22917 14.4666C6.31771 14.2233 6.40365 13.9629 6.52344 13.7224C6.6276 13.462 6.74479 13.2388 6.84635 13.0127C7.05208 12.592 6.97656 12.1054 6.6849 11.7849L4.85938 9.76144C4.84635 9.74713 4.84635 9.74713 4.82813 9.74713C4.77083 9.68417 4.72396 9.61834 4.69792 9.55538C4.66667 9.49241 4.66667 9.42659 4.66667 9.32928C4.66667 9.23197 4.67969 9.15183 4.71094 9.08601C4.74219 9.00587 4.78385 8.94291 4.85938 8.85991L7.11198 6.39859C7.1849 6.31846 7.24219 6.2698 7.31771 6.23546C7.3776 6.20111 7.44792 6.1868 7.53906 6.1868C7.6276 6.1868 7.70052 6.20111 7.76042 6.23546C7.82031 6.2698 7.89063 6.31559 7.95313 6.37856H7.96615L9.63021 8.20738C9.95313 8.56226 10.4688 8.61092 10.8385 8.32186C11.0313 8.19307 11.2214 8.06428 11.4401 7.93262C11.6745 7.80383 11.8984 7.67504 12.1042 7.5577C12.3255 7.44322 12.5625 7.3316 12.7969 7.2343C13.0026 7.15416 13.237 7.05685 13.5182 6.95954C13.9167 6.81644 14.1641 6.40718 14.1641 5.97216V3.1674C14.1641 3.07009 14.1771 2.97564 14.2083 2.90695C14.2396 2.84399 14.2813 2.77816 14.3255 2.7152C14.3854 2.65224 14.4427 2.60072 14.5 2.58641C14.5573 2.55207 14.6484 2.53776 14.737 2.53776H17H17.026H17.2578C17.3464 2.53776 17.4323 2.55207 17.4948 2.58641C17.5521 2.60072 17.612 2.65224 17.6693 2.7152C17.7135 2.77816 17.7578 2.84399 17.7865 2.90695C17.8177 2.96992 17.8307 3.07009 17.8307 3.1674V5.96929C17.8307 6.40718 18.0807 6.81072 18.4766 6.95668C18.7552 7.05399 18.9922 7.14844 19.1979 7.23143C19.4349 7.32874 19.6693 7.44322 19.8906 7.55484C20.0964 7.66932 20.3177 7.79811 20.5547 7.92976C20.776 8.05855 20.9661 8.18734 21.1563 8.31899C21.5234 8.61092 22.0391 8.56226 22.3646 8.20451L24.0286 6.3757H24.0417C24.099 6.31273 24.1719 6.26122 24.2344 6.2326C24.2917 6.19825 24.3646 6.18394 24.4557 6.18394C24.5443 6.18394 24.6172 6.19825 24.6771 6.2326C24.7526 6.26694 24.8073 6.31273 24.8828 6.39573L27.1354 8.85705C27.2083 8.93719 27.2526 9.00015 27.2839 9.08315C27.3151 9.14611 27.3281 9.22625 27.3281 9.32642C27.3281 9.42372 27.3281 9.48955 27.2969 9.55252C27.2656 9.61834 27.224 9.6813 27.1667 9.74427C27.1536 9.74427 27.1536 9.74427 27.1354 9.75858L25.3099 11.782C25.0156 12.1054 24.9427 12.592 25.1484 13.0098C25.2526 13.2359 25.3698 13.462 25.4714 13.7196C25.5885 13.9629 25.6771 14.2233 25.7656 14.4637C25.8542 14.7213 25.9271 14.9674 26.0026 15.225C26.0599 15.4511 26.1198 15.7087 26.1771 15.9863C26.2656 16.47 26.6484 16.8449 27.1198 16.8449H29.4583C29.5469 16.8449 29.6328 16.8592 29.6953 16.8935C29.7526 16.9078 29.8125 16.9565 29.8698 17.0223C29.9453 17.1053 29.987 17.1855 30.0182 17.2484C30.0313 17.3114 30.0495 17.3915 30.0495 17.4917V21.0205C30.0495 21.1178 30.0365 21.2123 30.0052 21.281C29.974 21.3468 29.9297 21.4098 29.875 21.4727C29.8307 21.5357 29.7578 21.5872 29.7005 21.6158C29.6406 21.6502 29.5521 21.6645 29.4661 21.6645H26.9167C26.5182 21.6645 26.151 21.9392 26.0182 22.3743C25.9297 22.6805 25.8438 22.9409 25.7682 23.167C25.6797 23.4275 25.5755 23.6851 25.474 23.9283C25.2526 24.4063 25.0391 24.8642 24.7813 25.3193C24.7552 25.3593 24.7318 25.3994 24.7109 25.4452H26.9401C27.0339 25.2391 27.1276 25.0159 27.2266 24.7869C27.3438 24.495 27.4609 24.2059 27.5677 23.914C27.5807 23.8654 27.612 23.7995 27.6276 23.7509H29.513C29.8516 23.7509 30.1771 23.6879 30.4688 23.5591C30.763 23.4303 31.0443 23.2186 31.2813 22.961C31.5182 22.7034 31.7083 22.4086 31.8255 22.068C31.9427 21.7275 32 21.3869 32 21.0177V17.4917C32 17.1368 31.9271 16.7819 31.8073 16.4557C31.6901 16.1322 31.513 15.8403 31.2786 15.5827L31.2656 15.5684C31.0286 15.308 30.763 15.0991 30.4714 14.9674C30.1771 14.8243 29.8516 14.7556 29.5156 14.7556H27.9089C27.9089 14.707 27.8958 14.6755 27.8776 14.6268C27.7891 14.3206 27.7031 14.0115 27.599 13.7196C27.4818 13.4133 27.3776 13.1186 27.2604 12.8467C27.2474 12.8123 27.2161 12.7665 27.2031 12.7179L28.5313 11.244C28.7813 11.0007 28.9583 10.7116 29.0885 10.3854C29.2057 10.062 29.2813 9.7042 29.2813 9.335C29.2813 8.96008 29.224 8.62523 29.0885 8.28465C28.9583 7.96124 28.7786 7.66932 28.5443 7.41174H28.5313L26.2786 4.95042C26.0443 4.69284 25.776 4.49823 25.4661 4.35226C25.1563 4.20916 24.8464 4.14048 24.5104 4.14048C24.1875 4.14048 23.8646 4.20344 23.5547 4.35226C23.2448 4.48105 22.9792 4.69284 22.7422 4.95042L21.5938 6.19825L21.5052 6.1496C21.2682 6.0065 21.0026 5.87485 20.724 5.72889C20.4583 5.6001 20.1953 5.47131 19.9297 5.35396C19.8854 5.33965 19.8255 5.30531 19.7813 5.28814V3.21319C19.7813 2.83827 19.724 2.48338 19.6068 2.16284C19.4896 1.83657 19.2969 1.53033 19.0625 1.26989C18.8125 1.00945 18.5469 0.800524 18.25 0.671734C17.9427 0.542944 17.6328 0.47998 17.2917 0.47998H16.1302H15.8698H14.7083C14.3672 0.47998 14.0625 0.542944 13.7526 0.671734C13.4609 0.800524 13.1927 1.01231 12.9401 1.26989C12.7031 1.53033 12.513 1.83657 12.3958 2.16284C12.2786 2.48338 12.2214 2.84399 12.2214 3.21319V5.28528C12.1771 5.29959 12.1172 5.33393 12.0729 5.3511C11.8073 5.46558 11.5443 5.59437 11.2786 5.72602C11 5.86912 10.7344 6.00077 10.4974 6.14674L10.4089 6.19539L9.26042 4.94756C9.02604 4.68998 8.75781 4.47819 8.44792 4.3494C8.13802 4.2063 7.8151 4.13761 7.49219 4.13761C7.15104 4.13761 6.84635 4.20058 6.53646 4.3494C6.22656 4.4925 5.96094 4.68998 5.72396 4.94756L3.47135 7.40888H3.45833C3.22396 7.66646 3.04688 7.96124 2.91406 8.28179C2.78385 8.6195 2.72135 8.96008 2.72135 9.32928C2.72135 9.7042 2.79427 10.0591 2.91406 10.3796C3.04427 10.703 3.22396 10.995 3.47396 11.2382L4.79948 12.7122C4.78646 12.7608 4.75521 12.8095 4.74219 12.841C4.625 13.1157 4.52083 13.4076 4.40104 13.7139C4.29688 14.0058 4.20833 14.312 4.1224 14.6211C4.10938 14.6698 4.09115 14.7012 4.09115 14.7499H2.48958C2.14844 14.7499 1.82552 14.8157 1.53385 14.9617C1.23958 15.0905 0.973958 15.3023 0.739583 15.5598L0.726563 15.5742C0.489583 15.8317 0.315104 16.1265 0.197917 16.4471C0.0729167 16.7762 0 17.1368 0 17.4917V21.0177C0 21.3926 0.0572917 21.7275 0.174479 22.068C0.291667 22.4086 0.484375 22.7005 0.71875 22.961C0.953125 23.2214 1.23438 23.4303 1.53125 23.5591C1.82552 23.6879 2.15104 23.7509 2.48698 23.7509H4.3724C4.38542 23.7995 4.41667 23.8654 4.43229 23.914C4.53646 24.2059 4.65365 24.495 4.77344 24.7869C4.875 25.0188 4.96615 25.242 5.0599 25.4452H7.28646V25.4509ZM12.2161 18.0698C12.0078 18.0784 11.8516 18.1271 11.7448 18.2043C11.6823 18.2501 11.638 18.3074 11.6094 18.3761C11.5755 18.4505 11.5625 18.5449 11.5651 18.6508C11.5729 18.9656 11.724 19.372 12.0104 19.8414L12.013 19.85L12.9479 21.4842C13.3229 22.1396 13.7161 22.8093 14.2031 23.2987C14.6719 23.7709 15.2422 24.0886 15.9974 24.0915C16.8125 24.0943 17.4115 23.7623 17.8932 23.2615C18.3958 22.7435 18.7943 22.0337 19.1875 21.3211L20.2396 19.415C20.4349 18.9227 20.5078 18.5936 20.4635 18.399C20.4349 18.2845 20.3203 18.2272 20.125 18.2186C20.0833 18.2158 20.0417 18.2158 19.9974 18.2158C19.9505 18.2186 19.901 18.2215 19.849 18.2244C19.8203 18.2272 19.7943 18.2244 19.7682 18.2186C19.6745 18.2244 19.5781 18.2158 19.4792 18.2015L19.8385 16.4471C17.9141 16.4213 16.5938 16.0521 15.0365 14.956C14.5234 14.5982 14.3698 14.1861 13.8568 14.2262C13.4714 14.3063 13.1458 14.498 12.8854 14.8043C12.638 15.0962 12.4505 15.4969 12.3281 16.0092L12.5339 18.0755C12.4245 18.0899 12.3177 18.0841 12.2161 18.0698ZM20.4896 17.7006C20.75 17.7865 20.9167 17.9697 20.9818 18.2616C21.0573 18.5878 20.974 19.0429 20.7266 19.664C20.7214 19.6754 20.7161 19.6868 20.7109 19.6983L19.6458 21.6273C19.2344 22.3714 18.8177 23.1155 18.2604 23.6879C17.6849 24.2804 16.974 24.6753 16.0026 24.6724C15.0964 24.6696 14.4141 24.2889 13.8542 23.7251C13.3125 23.1813 12.8984 22.4802 12.5052 21.7904L11.5703 20.1562C11.2292 19.5953 11.0521 19.083 11.0391 18.6623C11.0339 18.4648 11.0651 18.2845 11.1302 18.1271C11.2005 17.9611 11.3073 17.8237 11.4505 17.7178C11.5182 17.6691 11.5938 17.6262 11.6771 17.5919C11.6172 16.7075 11.5938 15.5885 11.6328 14.6526C11.6536 14.4322 11.6901 14.209 11.7474 13.9857C11.987 13.047 12.5859 12.2914 13.3281 11.7734C13.5885 11.5903 13.875 11.4386 14.1797 11.3184C15.974 10.6 18.3568 10.9921 19.6328 12.5061C20.151 13.1243 20.4792 13.9428 20.5495 15.0247L20.4896 17.7006Z" fill="black" fill-opacity="0.54"/>
</svg>
