<svg width="180" height="37" viewBox="0 0 180 37" fill="none" xmlns="http://www.w3.org/2000/svg">
<path d="M26.3598 1.28C26.3598 0.92656 26.6463 0.64 26.9998 0.64C27.3532 0.64 27.6398 0.92656 27.6398 1.28C27.6398 1.63344 27.3532 1.92 26.9998 1.92C26.6463 1.92 26.3598 1.63344 26.3598 1.28ZM36.5998 5.12C36.2463 5.12 35.9598 5.40656 35.9598 5.76C35.9598 6.11344 36.2463 6.4 36.5998 6.4C36.9532 6.4 37.2398 6.11344 37.2398 5.76C37.2398 5.40656 36.9532 5.12 36.5998 5.12ZM30.8398 1.92C30.8398 0.86128 31.701 0 32.7598 0C33.8185 0 34.6798 0.86128 34.6798 1.92C34.6798 2.97872 33.8185 3.84 32.7598 3.84C31.701 3.84 30.8398 2.97872 30.8398 1.92ZM32.1198 1.92C32.1198 2.2728 32.4066 2.56 32.7598 2.56C33.1129 2.56 33.3998 2.2728 33.3998 1.92C33.3998 1.5672 33.1129 1.28 32.7598 1.28C32.4066 1.28 32.1198 1.5672 32.1198 1.92ZM35.3198 8.96V28.16C35.3198 28.4098 35.1748 28.6366 34.9479 28.7413L18.3079 36.4213C18.223 36.4603 18.131 36.48 18.0398 36.48C17.9486 36.48 17.8566 36.4603 17.7716 36.4213L1.13161 28.7413C0.904726 28.6366 0.759766 28.4098 0.759766 28.16V8.96C0.759766 8.70288 0.913526 8.47056 1.15033 8.37056L17.7903 1.33056C17.9503 1.26304 18.129 1.26304 18.289 1.33056L34.929 8.37056C35.166 8.47056 35.3198 8.70288 35.3198 8.96ZM3.04217 8.96L10.07 11.9333L17.7716 8.37872C17.9484 8.29744 18.1529 8.30064 18.326 8.38752L25.6889 12.069L33.0374 8.96L18.0398 2.61504L3.04217 8.96ZM24.2886 22.4L18.0286 19.2701L11.247 22.4002L18.0286 25.5301L24.2886 22.4ZM17.3998 9.96016L10.3598 13.2093V21.3995L17.3998 18.1502V9.96016ZM2.03977 27.7506L17.3998 34.8395V26.6496L9.4516 22.9813C9.22472 22.8766 9.07977 22.6498 9.07977 22.4V12.9042L2.03977 9.9256V27.7506ZM34.0398 27.7506V9.9256L26.3598 13.1749V22.4C26.3598 22.6426 26.223 22.864 26.006 22.9725L18.6798 26.6357V34.8397L34.0398 27.7506Z" fill="url(#paint0_linear_1046_21740)"/>
<path d="M50.7768 11.2832C52.5274 11.2832 53.8928 11.8364 54.8731 12.9427C55.8535 14.0351 56.3436 15.5966 56.3436 17.6272V26.24H52.9405V17.7323C52.9405 16.5559 52.6604 15.6736 52.1002 15.0854C51.5541 14.4832 50.7908 14.1821 49.8105 14.1821C48.7742 14.1821 47.9409 14.5042 47.3107 15.1484C46.6945 15.7786 46.3864 16.7169 46.3864 17.9633V26.24H42.9833V11.5353H46.2814V13.3208C46.7855 12.6486 47.4157 12.1445 48.172 11.8084C48.9282 11.4582 49.7965 11.2832 50.7768 11.2832ZM65.4143 23.7822C66.0025 23.7822 66.5207 23.6982 66.9688 23.5301C67.431 23.3481 67.8581 23.068 68.2502 22.6899L69.9938 24.5805C68.9295 25.7989 67.375 26.4081 65.3303 26.4081C64.0559 26.4081 62.9285 26.163 61.9482 25.6728C60.9679 25.1687 60.2116 24.4754 59.6795 23.5932C59.1473 22.7109 58.8812 21.7095 58.8812 20.5892C58.8812 19.4828 59.1403 18.4885 59.6585 17.6062C60.1906 16.7099 60.9119 16.0167 61.8222 15.5266C62.7465 15.0224 63.7828 14.7703 64.9312 14.7703C66.0095 14.7703 66.9898 15.0014 67.8721 15.4635C68.7544 15.9117 69.4546 16.5699 69.9728 17.4382C70.505 18.2924 70.7711 19.3078 70.7711 20.4841L62.4104 22.1017C62.6484 22.6619 63.0196 23.082 63.5237 23.3621C64.0419 23.6422 64.6721 23.7822 65.4143 23.7822ZM64.9312 17.2491C64.1049 17.2491 63.4327 17.5152 62.9145 18.0474C62.3964 18.5795 62.1233 19.3148 62.0953 20.2531L67.599 19.1817C67.445 18.5935 67.1299 18.1244 66.6537 17.7743C66.1776 17.4242 65.6034 17.2491 64.9312 17.2491ZM91.1006 14.9384V21.1774C91.1006 22.8439 90.6454 24.1323 89.7351 25.0426C88.8248 25.9529 87.5294 26.4081 85.8489 26.4081C85.0366 26.4081 84.3154 26.282 83.6852 26.0299C83.069 25.7779 82.5508 25.3717 82.1307 24.8115C81.7105 25.3717 81.1924 25.7779 80.5762 26.0299C79.96 26.282 79.2317 26.4081 78.3915 26.4081C76.6969 26.4081 75.4015 25.9529 74.5052 25.0426C73.6089 24.1323 73.1608 22.8439 73.1608 21.1774V14.9384H76.4378V20.9253C76.4378 21.8636 76.5989 22.5568 76.921 23.005C77.2431 23.4391 77.7473 23.6562 78.4335 23.6562C79.1337 23.6562 79.6519 23.4321 79.988 22.984C80.3241 22.5358 80.4921 21.8496 80.4921 20.9253V14.9384H83.7692V20.9253C83.7692 21.8496 83.9373 22.5358 84.2734 22.984C84.6095 23.4321 85.1276 23.6562 85.8279 23.6562C86.5141 23.6562 87.0183 23.4391 87.3404 23.005C87.6625 22.5568 87.8235 21.8636 87.8235 20.9253V14.9384H91.1006ZM103.896 26.24L101.06 22.1437H100.892H97.9301V26.24H94.527V11.5353H100.892C102.194 11.5353 103.322 11.7523 104.274 12.1865C105.24 12.6206 105.983 13.2368 106.501 14.0351C107.019 14.8333 107.278 15.7786 107.278 16.871C107.278 17.9633 107.012 18.9086 106.48 19.7069C105.962 20.4912 105.219 21.0933 104.253 21.5135L107.551 26.24H103.896ZM103.833 16.871C103.833 16.0447 103.567 15.4145 103.035 14.9804C102.503 14.5322 101.725 14.3082 100.703 14.3082H97.9301V19.4338H100.703C101.725 19.4338 102.503 19.2097 103.035 18.7616C103.567 18.3135 103.833 17.6832 103.833 16.871ZM115.686 23.7822C116.274 23.7822 116.792 23.6982 117.241 23.5301C117.703 23.3481 118.13 23.068 118.522 22.6899L120.266 24.5805C119.201 25.7989 117.647 26.4081 115.602 26.4081C114.328 26.4081 113.2 26.163 112.22 25.6728C111.24 25.1687 110.483 24.4754 109.951 23.5932C109.419 22.7109 109.153 21.7095 109.153 20.5892C109.153 19.4828 109.412 18.4885 109.93 17.6062C110.462 16.7099 111.184 16.0167 112.094 15.5266C113.018 15.0224 114.055 14.7703 115.203 14.7703C116.281 14.7703 117.262 15.0014 118.144 15.4635C119.026 15.9117 119.726 16.5699 120.245 17.4382C120.777 18.2924 121.043 19.3078 121.043 20.4841L112.682 22.1017C112.92 22.6619 113.291 23.082 113.796 23.3621C114.314 23.6422 114.944 23.7822 115.686 23.7822ZM115.203 17.2491C114.377 17.2491 113.705 17.5152 113.186 18.0474C112.668 18.5795 112.395 19.3148 112.367 20.2531L117.871 19.1817C117.717 18.5935 117.402 18.1244 116.926 17.7743C116.449 17.4242 115.875 17.2491 115.203 17.2491ZM130.365 14.7703C131.765 14.7703 132.893 15.1904 133.747 16.0307C134.615 16.871 135.049 18.1174 135.049 19.7699V26.24H131.772V20.2741C131.772 19.3778 131.576 18.7126 131.184 18.2784C130.792 17.8303 130.225 17.6062 129.483 17.6062C128.656 17.6062 127.998 17.8653 127.508 18.3835C127.018 18.8876 126.773 19.6439 126.773 20.6522V26.24H123.496V14.9384H126.626V16.2618C127.06 15.7856 127.599 15.4215 128.243 15.1694C128.887 14.9034 129.595 14.7703 130.365 14.7703ZM145.076 25.6938C144.754 25.9319 144.355 26.114 143.879 26.24C143.417 26.352 142.933 26.4081 142.429 26.4081C141.071 26.4081 140.027 26.0649 139.299 25.3787C138.571 24.6925 138.207 23.6842 138.207 22.3538V12.4386H141.484V15.1904H144.278V17.7113H141.484V22.3117C141.484 22.7879 141.603 23.159 141.841 23.4251C142.079 23.6772 142.422 23.8032 142.87 23.8032C143.374 23.8032 143.823 23.6632 144.215 23.3831L145.076 25.6938ZM158.298 14.9384V26.24H155.168V24.9376C154.356 25.9179 153.179 26.4081 151.639 26.4081C150.574 26.4081 149.608 26.17 148.74 25.6938C147.886 25.2177 147.213 24.5385 146.723 23.6562C146.233 22.7739 145.988 21.7516 145.988 20.5892C145.988 19.4268 146.233 18.4045 146.723 17.5222C147.213 16.6399 147.886 15.9607 148.74 15.4845C149.608 15.0084 150.574 14.7703 151.639 14.7703C153.081 14.7703 154.209 15.2255 155.021 16.1357V14.9384H158.298ZM152.206 23.7192C153.032 23.7192 153.718 23.4391 154.265 22.8789C154.811 22.3047 155.084 21.5415 155.084 20.5892C155.084 19.6369 154.811 18.8806 154.265 18.3205C153.718 17.7463 153.032 17.4592 152.206 17.4592C151.366 17.4592 150.672 17.7463 150.126 18.3205C149.58 18.8806 149.307 19.6369 149.307 20.5892C149.307 21.5415 149.58 22.3047 150.126 22.8789C150.672 23.4391 151.366 23.7192 152.206 23.7192ZM165.636 26.4081C164.362 26.4081 163.367 26.072 162.653 25.3997C161.939 24.7135 161.582 23.7472 161.582 22.5008V10.653H164.859V22.3117C164.859 22.7879 164.978 23.159 165.216 23.4251C165.468 23.6772 165.818 23.8032 166.266 23.8032C166.434 23.8032 166.603 23.7822 166.771 23.7402C166.953 23.6982 167.093 23.6492 167.191 23.5932L167.338 26.135C166.792 26.317 166.224 26.4081 165.636 26.4081ZM172.999 26.4081C172.06 26.4081 171.143 26.296 170.247 26.072C169.351 25.8339 168.636 25.5398 168.104 25.1897L169.197 22.8369C169.701 23.159 170.31 23.4251 171.024 23.6352C171.738 23.8312 172.439 23.9293 173.125 23.9293C174.511 23.9293 175.204 23.5861 175.204 22.8999C175.204 22.5778 175.015 22.3468 174.637 22.2067C174.259 22.0667 173.678 21.9476 172.894 21.8496C171.969 21.7095 171.206 21.5485 170.604 21.3664C170.002 21.1844 169.477 20.8623 169.029 20.4001C168.594 19.938 168.377 19.2798 168.377 18.4255C168.377 17.7113 168.58 17.0811 168.986 16.5349C169.407 15.9747 170.009 15.5406 170.793 15.2325C171.591 14.9244 172.53 14.7703 173.608 14.7703C174.406 14.7703 175.197 14.8613 175.982 15.0434C176.78 15.2114 177.438 15.4495 177.956 15.7576L176.864 18.0894C175.87 17.5292 174.784 17.2491 173.608 17.2491C172.908 17.2491 172.383 17.3471 172.032 17.5432C171.682 17.7393 171.507 17.9913 171.507 18.2994C171.507 18.6496 171.696 18.8946 172.074 19.0347C172.453 19.1747 173.055 19.3078 173.881 19.4338C174.805 19.5879 175.562 19.7559 176.15 19.938C176.738 20.106 177.249 20.4211 177.683 20.8833C178.117 21.3454 178.335 21.9896 178.335 22.8159C178.335 23.5161 178.124 24.1393 177.704 24.6855C177.284 25.2317 176.668 25.6588 175.856 25.9669C175.057 26.261 174.105 26.4081 172.999 26.4081Z" fill="#D7385E"/>
<defs>
<linearGradient id="paint0_linear_1046_21740" x1="18.9998" y1="0" x2="18.9998" y2="36.48" gradientUnits="userSpaceOnUse">
<stop stop-color="#D7385E"/>
<stop offset="1" stop-color="#76D3D6"/>
</linearGradient>
</defs>
</svg>
