<svg width="33" height="33" viewBox="0 0 33 33" fill="none" xmlns="http://www.w3.org/2000/svg">
<path fill-rule="evenodd" clip-rule="evenodd" d="M13.104 22.5419C12.9707 22.5407 12.8396 22.5751 12.724 22.6415C12.676 22.6731 12.6379 22.7176 12.6139 22.7699C12.5879 22.8339 12.5763 22.9028 12.5799 22.9717C12.6183 23.2898 12.7424 23.5914 12.9389 23.8444L13.6937 24.9111C13.972 25.3967 14.312 25.8442 14.7053 26.2425C15.0939 26.6166 15.6126 26.8252 16.152 26.8243C16.4344 26.8302 16.7151 26.7795 16.9776 26.6751C17.24 26.5706 17.4788 26.4146 17.6799 26.2163C18.0909 25.7914 18.4435 25.3137 18.7283 24.7958L19.5853 23.543C19.7164 23.3177 19.7793 23.0591 19.7661 22.7987C19.7425 22.7149 19.6508 22.6729 19.504 22.6677C19.47 22.665 19.4358 22.665 19.4018 22.6677H19.2839C19.2622 22.6717 19.24 22.6717 19.2183 22.6677C19.1404 22.6724 19.0621 22.668 18.9851 22.6546L19.276 21.3678C17.1191 21.7085 15.5047 20.1046 13.2246 21.048L13.3661 22.555C13.2789 22.5633 13.1912 22.5633 13.104 22.555V22.5419ZM6.89795 29.5237V12.6615H0.935627V29.9588H6.55201C6.38293 30.219 6.27373 30.5135 6.23227 30.821L6.21654 30.8944H0.469124C0.345607 30.8944 0.227071 30.8457 0.139243 30.7589C0.0514141 30.672 0.00138007 30.554 0 30.4305L0 12.4099C0.00136565 12.2273 0.0737445 12.0525 0.201802 11.9224C0.265823 11.8584 0.341824 11.8076 0.425464 11.773C0.509105 11.7384 0.598747 11.7206 0.689271 11.7206H6.89795V1.30292C6.89715 1.19512 6.91809 1.08828 6.95952 0.98876C7.00095 0.889244 7.06201 0.799101 7.13907 0.723718C7.21508 0.646589 7.30565 0.585327 7.40553 0.543486C7.5054 0.501646 7.6126 0.48006 7.72088 0.479983H24.4102C24.5183 0.479717 24.6253 0.50089 24.7252 0.542277C24.8251 0.583664 24.9157 0.644442 24.992 0.721097L25.0287 0.760409C25.1624 0.909434 25.2361 1.1027 25.2357 1.30292V11.7206H31.5256C31.7076 11.721 31.882 11.7936 32.0105 11.9224C32.0742 11.9855 32.1248 12.0606 32.1595 12.1434C32.1941 12.2262 32.212 12.3149 32.2123 12.4046V30.4253C32.2123 30.4869 32.2002 30.5479 32.1766 30.6048C32.153 30.6617 32.1184 30.7134 32.0749 30.757C32.0313 30.8006 31.9796 30.8351 31.9227 30.8587C31.8658 30.8823 31.8048 30.8944 31.7432 30.8944H25.9879L25.9722 30.821C25.93 30.5136 25.8209 30.2193 25.6524 29.9588H31.2688V12.6615H25.241V29.4346L25.0208 29.1542C24.8529 28.9346 24.6613 28.7342 24.4495 28.5566L24.3053 28.4439V1.41561H7.83358V28.499L7.76544 28.554C7.55073 28.7293 7.35802 28.93 7.19148 29.1516C7.07879 29.2983 6.98182 29.4136 6.89795 29.5237ZM27.065 21.622H29.0097C29.0516 21.622 29.0883 21.6482 29.0883 21.6797V23.205C29.0883 23.2364 29.0516 23.2652 29.0097 23.2652H27.065C27.0231 23.2652 26.9864 23.239 26.9864 23.205V21.6797C26.9864 21.6482 27.0231 21.622 27.065 21.622ZM3.14496 21.622H5.0896C5.13153 21.622 5.16822 21.6482 5.16822 21.6797V23.205C5.16822 23.2364 5.13153 23.2652 5.0896 23.2652H3.14496C3.10303 23.2652 3.06634 23.239 3.06634 23.205V21.6797C3.06634 21.6482 3.10303 21.622 3.14496 21.622ZM9.93284 3.23183H22.2008C22.2998 3.23252 22.3944 3.27231 22.4641 3.34252C22.5339 3.41273 22.573 3.50766 22.573 3.6066V9.0736C22.573 9.17254 22.5339 9.26747 22.4641 9.33768C22.3944 9.40789 22.2998 9.44768 22.2008 9.44837H9.93284C9.83366 9.44768 9.73873 9.40798 9.6686 9.33784C9.59846 9.26771 9.55875 9.17278 9.55807 9.0736V3.6066C9.55807 3.5072 9.59755 3.41188 9.66784 3.34159C9.73812 3.27131 9.83345 3.23183 9.93284 3.23183ZM27.065 18.2857H29.0097C29.0516 18.2857 29.0883 18.3119 29.0883 18.3434V19.8739C29.0883 19.9028 29.0516 19.9316 29.0097 19.9316H27.065C27.0231 19.9316 26.9864 19.9054 26.9864 19.8739V18.3434C26.9864 18.3067 27.0231 18.2857 27.065 18.2857ZM27.065 14.9442H29.0097C29.0516 14.9442 29.0883 14.9704 29.0883 15.0019V16.5298C29.0883 16.5586 29.0516 16.5874 29.0097 16.5874H27.065C27.0231 16.5874 26.9864 16.5612 26.9864 16.5298V15.0019C26.9864 14.9704 27.0231 14.9442 27.065 14.9442ZM3.14496 18.2857H5.0896C5.13153 18.2857 5.16822 18.3119 5.16822 18.3434V19.8739C5.16822 19.9028 5.13153 19.9316 5.0896 19.9316H3.14496C3.10303 19.9316 3.06634 19.9054 3.06634 19.8739V18.3434C3.06634 18.3067 3.10303 18.2857 3.14496 18.2857ZM3.14496 14.9442H5.0896C5.13153 14.9442 5.16822 14.9704 5.16822 15.0019V16.5298C5.16822 16.5586 5.13153 16.5874 5.0896 16.5874H3.14496C3.10303 16.5874 3.06634 16.5612 3.06634 16.5298V15.0019C3.06634 14.9704 3.10303 14.9442 3.14496 14.9442ZM19.7582 16.991H22.1877C22.2081 16.9917 22.2274 17.0003 22.2416 17.015C22.2558 17.0296 22.2637 17.0493 22.2637 17.0697V19.8346C22.2637 19.8548 22.2557 19.8741 22.2415 19.8884C22.2272 19.9026 22.2079 19.9106 22.1877 19.9106H21.2075C21.1679 19.4401 21.0583 18.9782 20.8826 18.5399C20.7035 18.0993 20.448 17.6938 20.1278 17.3422C20.0111 17.2185 19.8877 17.1013 19.7582 16.991ZM9.94333 16.991H12.7004C12.4834 17.1756 12.2851 17.381 12.1081 17.6043C11.789 18.0074 11.553 18.4697 11.4136 18.9645C11.3795 19.0877 11.3507 19.2056 11.3297 19.3209C11.3088 19.4362 11.293 19.5489 11.2799 19.6721V19.7455C11.2799 19.7953 11.2799 19.8503 11.2799 19.9028H9.94333C9.92292 19.9028 9.90331 19.8948 9.88864 19.8807C9.87397 19.8665 9.86538 19.8471 9.8647 19.8267V17.0749C9.86536 17.0543 9.87385 17.0346 9.88846 17.02C9.90306 17.0054 9.92268 16.9969 9.94333 16.9963V16.991ZM19.428 11.6394H22.1877C22.2081 11.64 22.2274 11.6486 22.2416 11.6633C22.2558 11.678 22.2637 11.6976 22.2637 11.718V14.4777C22.2637 14.4981 22.2558 14.5177 22.2416 14.5324C22.2274 14.5471 22.2081 14.5556 22.1877 14.5563H19.428C19.4074 14.5557 19.3877 14.5472 19.3731 14.5326C19.3585 14.518 19.35 14.4983 19.3494 14.4777V11.718C19.35 11.6973 19.3585 11.6777 19.3731 11.6631C19.3877 11.6485 19.4074 11.64 19.428 11.6394ZM14.6844 11.6394H17.4441C17.4647 11.64 17.4843 11.6485 17.4989 11.6631C17.5135 11.6777 17.522 11.6973 17.5227 11.718V14.4777C17.522 14.4983 17.5135 14.518 17.4989 14.5326C17.4843 14.5472 17.4647 14.5557 17.4441 14.5563H14.6765C14.6559 14.5557 14.6362 14.5472 14.6216 14.5326C14.607 14.518 14.5985 14.4983 14.5979 14.4777V11.718C14.5985 11.6973 14.607 11.6777 14.6216 11.6631C14.6362 11.6485 14.6559 11.64 14.6765 11.6394H14.6844ZM9.94333 11.6394H12.703C12.7237 11.64 12.7433 11.6485 12.7579 11.6631C12.7725 11.6777 12.781 11.6973 12.7817 11.718V14.4777C12.781 14.4983 12.7725 14.518 12.7579 14.5326C12.7433 14.5472 12.7237 14.5557 12.703 14.5563H9.94333C9.92268 14.5557 9.90306 14.5472 9.88846 14.5326C9.87385 14.518 9.86536 14.4983 9.8647 14.4777V11.718C9.86536 11.6973 9.87385 11.6777 9.88846 11.6631C9.90306 11.6485 9.92268 11.64 9.94333 11.6394ZM14.4799 28.9367V27.4454C14.9853 27.5735 15.4638 27.7909 15.8925 28.0875C15.9992 28.0537 16.1121 28.0448 16.2228 28.0613L17.7953 27.3563L17.7376 29.0022C17.3789 28.9181 17.0327 28.7877 16.7076 28.6143C16.7028 28.7163 16.6797 28.8166 16.6395 28.9105L17.2973 31.2115C17.8215 30.1291 18.3456 29.0546 18.4688 27.8281C18.2524 27.5621 18.0503 27.2847 17.8634 26.9973C17.8057 26.916 17.7559 26.84 17.7035 26.7693C17.2364 27.1065 16.6698 27.2776 16.0941 27.2553C15.5184 27.2329 14.9667 27.0185 14.5271 26.6461C14.4563 26.743 14.3777 26.8584 14.2939 26.9842C14.1314 27.2174 13.9532 27.4821 13.7697 27.7023C13.9977 29.1254 14.5428 30.1265 15.0382 31.1958L15.7038 28.8869C15.6295 28.7739 15.5845 28.6442 15.5728 28.5095L14.4826 28.9157L14.4799 28.9367ZM17.9656 26.5596L18.1412 26.8217C18.2565 26.9946 18.3876 27.1833 18.5134 27.3458C19.3966 28.1085 21.9204 28.2657 22.8665 28.7925C23.1718 28.9599 23.4394 29.1883 23.6527 29.4634C24.1979 30.1815 24.245 30.7529 24.439 31.6335C24.3892 32.1576 24.0983 32.4433 23.5243 32.4878H8.67224C8.09828 32.4459 7.80737 32.1498 7.75758 31.6335C7.95414 30.7503 8.00131 30.1842 8.54382 29.4634C8.75579 29.187 9.02371 28.9584 9.33006 28.7925C10.2264 28.2946 12.5484 28.1268 13.5233 27.4585C13.678 27.2593 13.8378 27.0235 13.982 26.8138C14.0711 26.6828 14.1523 26.5517 14.2231 26.4679C14.2337 26.4516 14.2481 26.4381 14.265 26.4286C13.908 26.0375 13.5935 25.6097 13.3268 25.1522L12.593 24.0672C12.3531 23.748 12.2053 23.3691 12.1658 22.9717C12.1581 22.8375 12.1833 22.7035 12.2391 22.5812C12.2961 22.4579 12.387 22.3534 12.5012 22.2798C12.5584 22.2411 12.62 22.2095 12.6847 22.1855C12.6315 21.4678 12.6193 20.7476 12.648 20.0285C12.6894 19.5931 12.8351 19.174 13.0728 18.8067C13.3105 18.4395 13.6331 18.1349 14.0134 17.9188C14.2294 17.7829 14.4596 17.6713 14.7001 17.586C15.1325 17.4287 14.9229 16.7657 15.4051 16.7525C16.5294 16.729 18.3744 17.6803 19.0952 18.4587C19.5492 18.9695 19.8097 19.6233 19.8316 20.3064L19.7844 22.2615C19.8827 22.2872 19.9718 22.3398 20.0417 22.4134C20.1116 22.4871 20.1596 22.5788 20.1802 22.6782C20.2216 23.0348 20.1491 23.3953 19.9731 23.7082V23.7317L19.1135 25.0186C18.8122 25.5713 18.4365 26.0801 17.9971 26.5308L17.9787 26.5517L17.9656 26.5596Z" fill="black" fill-opacity="0.6"/>
</svg>
